<svg width="18" height="17" viewBox="0 0 18 17" fill="none" xmlns="http://www.w3.org/2000/svg">
<path d="M3.68746 1.54167C3.16255 1.54167 2.65914 1.75019 2.28798 2.12135C1.91681 2.49252 1.70829 2.99593 1.70829 3.52083V9.97917C1.70829 10.5041 1.91681 11.0075 2.28798 11.3786C2.65914 11.7498 3.16255 11.9583 3.68746 11.9583H5.04163V15.2242L9.66788 11.9583H14.3125C14.8374 11.9583 15.3408 11.7498 15.7119 11.3786C16.0831 11.0075 16.2916 10.5041 16.2916 9.97917V3.52083C16.2916 2.99593 16.0831 2.49252 15.7119 2.12135C15.3408 1.75019 14.8374 1.54167 14.3125 1.54167H3.68746ZM0.666626 3.52083C0.666626 2.71966 0.984892 1.9513 1.55141 1.38478C2.11792 0.818266 2.88628 0.5 3.68746 0.5H14.3125C15.1136 0.5 15.882 0.818266 16.4485 1.38478C17.015 1.9513 17.3333 2.71966 17.3333 3.52083V9.97917C17.3333 10.7803 17.015 11.5487 16.4485 12.1152C15.882 12.6817 15.1136 13 14.3125 13H9.99871L5.47788 16.1908C4.85704 16.6292 3.99996 16.185 3.99996 15.425V13H3.68746C2.88628 13 2.11792 12.6817 1.55141 12.1152C0.984892 11.5487 0.666626 10.7803 0.666626 9.97917V3.52083Z" fill="#898484" fill-opacity="0.5"/>
</svg>
