<svg width="74" height="74" viewBox="0 0 74 74" fill="none" xmlns="http://www.w3.org/2000/svg">
<path d="M36.8889 4.11133C30.3841 4.11133 24.0254 6.04023 18.6168 9.65411C13.2083 13.268 8.99281 18.4045 6.50353 24.4142C4.01425 30.4238 3.36294 37.0367 4.63197 43.4165C5.90099 49.7963 9.03335 55.6566 13.6329 60.2562C18.2325 64.8558 24.0928 67.9881 30.4726 69.2572C36.8524 70.5262 43.4653 69.8749 49.4749 67.3856C55.4846 64.8963 60.6211 60.6809 64.235 55.2723C67.8489 49.8638 69.7778 43.505 69.7778 37.0002C69.7778 28.2775 66.3127 19.9121 60.1449 13.7443C53.977 7.5764 45.6116 4.11133 36.8889 4.11133ZM36.8889 65.778C31.1972 65.778 25.6333 64.0902 20.9008 60.9281C16.1683 57.7659 12.4798 53.2715 10.3017 48.013C8.12358 42.7546 7.55369 36.9683 8.66408 31.386C9.77448 25.8036 12.5153 20.6759 16.5399 16.6513C20.5646 12.6266 25.6923 9.88579 31.2746 8.7754C36.857 7.665 42.6432 8.2349 47.9017 10.413C53.1601 12.5911 57.6546 16.2797 60.8168 21.0121C63.9789 25.7446 65.6667 31.3085 65.6667 37.0002C65.6667 44.6326 62.6347 51.9523 57.2379 57.3492C51.841 62.7461 44.5212 65.778 36.8889 65.778Z" fill="#37C64E"/>
<path d="M55.4391 25.5328C55.0838 25.1915 54.6032 25 54.1022 25C53.6012 25 53.1206 25.1915 52.7653 25.5328L31.7162 45.7783L20.3383 34.7853C19.9913 34.4232 19.5097 34.2093 18.9993 34.1904C18.489 34.1715 17.9918 34.3492 17.6171 34.6845C17.2425 35.0198 17.021 35.4851 17.0014 35.9782C16.9819 36.4713 17.1658 36.9516 17.5128 37.3137L31.7162 51L55.4391 28.1345C55.6168 27.9641 55.7579 27.7615 55.8542 27.5382C55.9504 27.315 56 27.0755 56 26.8336C56 26.5918 55.9504 26.3523 55.8542 26.129C55.7579 25.9057 55.6168 25.7031 55.4391 25.5328Z" fill="#37C64E" stroke="#37C64E"/>
</svg>
