<svg width="21" height="21" viewBox="0 0 21 21" fill="none" xmlns="http://www.w3.org/2000/svg">
<path d="M16.3334 17.5H3.50004V4.66667H11.2117L12.3784 3.5H3.50004C3.19062 3.5 2.89388 3.62292 2.67508 3.84171C2.45629 4.0605 2.33337 4.35725 2.33337 4.66667V17.5C2.33337 17.8094 2.45629 18.1062 2.67508 18.325C2.89388 18.5437 3.19062 18.6667 3.50004 18.6667H16.3334C16.6428 18.6667 16.9395 18.5437 17.1583 18.325C17.3771 18.1062 17.5 17.8094 17.5 17.5V8.75L16.3334 9.91667V17.5Z" fill="#898484"/>
<path d="M19.5592 3.40588L17.5933 1.44005C17.5061 1.35257 17.4025 1.28316 17.2883 1.2358C17.1742 1.18844 17.0519 1.16406 16.9283 1.16406C16.8048 1.16406 16.6825 1.18844 16.5684 1.2358C16.4542 1.28316 16.3506 1.35257 16.2633 1.44005L8.26585 9.48421L7.61835 12.29C7.59076 12.4261 7.59366 12.5665 7.62684 12.7012C7.66002 12.836 7.72265 12.9617 7.81022 13.0694C7.8978 13.177 8.00814 13.264 8.13332 13.3239C8.2585 13.3838 8.39541 13.4152 8.53418 13.4159C8.60591 13.4238 8.67829 13.4238 8.75002 13.4159L11.5792 12.7917L19.5592 4.73588C19.6467 4.64864 19.7161 4.54499 19.7634 4.43088C19.8108 4.31677 19.8352 4.19443 19.8352 4.07088C19.8352 3.94733 19.8108 3.825 19.7634 3.71088C19.7161 3.59677 19.6467 3.49312 19.5592 3.40588ZM10.9725 11.7125L8.83752 12.185L9.33335 10.0675L15.3533 4.00671L16.9983 5.65171L10.9725 11.7125ZM17.6575 4.99255L16.0125 3.34755L16.9167 2.42588L18.5733 4.08255L17.6575 4.99255Z" fill="#898484"/>
</svg>
