<svg width="20" height="20" viewBox="0 0 20 20" fill="none" xmlns="http://www.w3.org/2000/svg">
<path d="M9.46837 12.3401C10.307 11.7831 10.9439 10.9709 11.285 10.0237C11.6261 9.07653 11.6532 8.0447 11.3622 7.08093C11.0713 6.11716 10.4778 5.27266 9.66964 4.67241C8.86144 4.07216 7.88146 3.74805 6.87474 3.74805C5.86802 3.74805 4.88804 4.07216 4.07984 4.67241C3.27164 5.27266 2.67817 6.11716 2.38724 7.08093C2.09631 8.0447 2.1234 9.07653 2.46448 10.0237C2.80557 10.9709 3.44253 11.7831 4.28111 12.3401C2.85161 12.8674 1.61611 13.8167 0.738375 15.0622C0.690489 15.1292 0.656345 15.2051 0.637908 15.2855C0.619471 15.3658 0.617105 15.449 0.630947 15.5302C0.644788 15.6115 0.674564 15.6892 0.718559 15.7589C0.762554 15.8286 0.819901 15.8889 0.887297 15.9363C0.954693 15.9838 1.03081 16.0174 1.11126 16.0353C1.19171 16.0532 1.27491 16.0551 1.35607 16.0407C1.43723 16.0263 1.51474 15.996 1.58415 15.9516C1.65355 15.9071 1.71348 15.8494 1.76048 15.7817C2.33729 14.9611 3.10306 14.2914 3.99315 13.8291C4.88324 13.3668 5.8715 13.1254 6.8745 13.1253C7.8775 13.1253 8.86579 13.3666 9.7559 13.8289C10.646 14.2912 11.4118 14.9609 11.9887 15.7814C12.0359 15.8486 12.0959 15.9058 12.1652 15.9498C12.2346 15.9938 12.3119 16.0237 12.3929 16.0378C12.4738 16.0519 12.5567 16.0499 12.6368 16.032C12.717 16.014 12.7928 15.9804 12.86 15.9331C12.9271 15.8858 12.9843 15.8258 13.0282 15.7564C13.0721 15.687 13.102 15.6096 13.116 15.5287C13.13 15.4477 13.1279 15.3648 13.1098 15.2847C13.0918 15.2046 13.0581 15.1288 13.0107 15.0617C12.133 13.8165 10.8977 12.8673 9.46837 12.34V12.3401ZM3.4372 8.43794C3.4372 7.75806 3.63881 7.09346 4.01653 6.52816C4.39424 5.96287 4.93111 5.52228 5.55923 5.2621C6.18735 5.00192 6.87852 4.93385 7.54533 5.06649C8.21214 5.19912 8.82464 5.52651 9.30538 6.00726C9.78613 6.488 10.1135 7.1005 10.2462 7.76731C10.3788 8.43412 10.3107 9.12529 10.0505 9.75341C9.79036 10.3815 9.34977 10.9184 8.78448 11.2961C8.21918 11.6738 7.55458 11.8754 6.8747 11.8754C5.96334 11.8744 5.0896 11.5119 4.44517 10.8675C3.80073 10.223 3.43824 9.3493 3.4372 8.43794ZM19.2285 15.9326C19.1613 15.9799 19.0856 16.0135 19.0055 16.0315C18.9254 16.0494 18.8426 16.0515 18.7617 16.0374C18.6808 16.0234 18.6035 15.9936 18.5342 15.9496C18.4648 15.9057 18.4048 15.8486 18.3576 15.7815C17.7801 14.9617 17.0141 14.2926 16.1242 13.8304C15.2343 13.3682 14.2464 13.1264 13.2436 13.1254C13.0778 13.1254 12.9189 13.0596 12.8017 12.9424C12.6845 12.8252 12.6186 12.6662 12.6186 12.5004C12.6186 12.3347 12.6845 12.1757 12.8017 12.0585C12.9189 11.9413 13.0778 11.8754 13.2436 11.8754C13.7345 11.8749 14.2195 11.7692 14.6662 11.5655C15.1128 11.3618 15.5106 11.0648 15.8328 10.6946C16.1551 10.3243 16.3943 9.88924 16.5343 9.41877C16.6744 8.94831 16.7121 8.4533 16.6448 7.96705C16.5776 7.4808 16.407 7.01459 16.1445 6.59979C15.882 6.18499 15.5337 5.83122 15.1231 5.56228C14.7125 5.29334 14.249 5.11546 13.7638 5.04063C13.2787 4.96579 12.7832 4.99572 12.3106 5.12841C12.1512 5.1726 11.9809 5.15184 11.8368 5.07068C11.6927 4.98952 11.5867 4.85458 11.5419 4.6954C11.4971 4.53622 11.5172 4.36578 11.5979 4.2214C11.6785 4.07703 11.813 3.97049 11.972 3.92512C13.0472 3.62178 14.1954 3.71245 15.2096 4.18081C16.2238 4.64916 17.0373 5.46438 17.5036 6.47954C17.9699 7.49471 18.0582 8.64304 17.7527 9.71758C17.4472 10.7921 16.7679 11.7222 15.8372 12.3401C17.2665 12.8674 18.5019 13.8165 19.3796 15.0618C19.4751 15.1973 19.5127 15.3652 19.4844 15.5285C19.456 15.6918 19.364 15.8372 19.2285 15.9326Z" fill="#898484" fill-opacity="0.5"/>
</svg>
