<svg width="32" height="32" viewBox="0 0 32 32" fill="none" xmlns="http://www.w3.org/2000/svg">
<path d="M15.1499 19.7434C16.4917 18.8522 17.5108 17.5526 18.0565 16.0372C18.6023 14.5217 18.6456 12.8707 18.1801 11.3287C17.7146 9.78668 16.7651 8.43548 15.472 7.47507C14.1788 6.51467 12.6109 5.99609 11.0001 5.99609C9.38937 5.99609 7.82141 6.51467 6.52829 7.47507C5.23517 8.43548 4.2856 9.78668 3.82012 11.3287C3.35464 12.8707 3.39797 14.5217 3.94371 16.0372C4.48945 17.5526 5.50859 18.8522 6.85031 19.7434C4.56311 20.5871 2.58632 22.106 1.18194 24.0987C1.10532 24.206 1.05069 24.3274 1.02119 24.456C0.991691 24.5845 0.987905 24.7176 1.01005 24.8476C1.0322 24.9776 1.07984 25.1019 1.15023 25.2134C1.22062 25.325 1.31238 25.4215 1.42021 25.4974C1.52805 25.5733 1.64983 25.6271 1.77855 25.6558C1.90727 25.6844 2.04039 25.6873 2.17025 25.6643C2.3001 25.6413 2.42412 25.5929 2.53517 25.5218C2.64622 25.4506 2.74211 25.3583 2.81731 25.2499C3.74019 23.937 4.96543 22.8655 6.38958 22.1258C7.81372 21.386 9.39494 20.9998 10.9997 20.9998C12.6045 20.9997 14.1858 21.3858 15.61 22.1255C17.0342 22.8651 18.2595 23.9366 19.1824 25.2494C19.258 25.357 19.354 25.4486 19.4649 25.519C19.5759 25.5894 19.6997 25.6372 19.8291 25.6598C19.9586 25.6823 20.0912 25.6791 20.2195 25.6504C20.3477 25.6216 20.469 25.5679 20.5765 25.4922C20.6839 25.4166 20.7754 25.3205 20.8457 25.2094C20.916 25.0984 20.9637 24.9746 20.9861 24.8451C21.0085 24.7156 21.0051 24.5829 20.9762 24.4547C20.9474 24.3265 20.8935 24.2053 20.8177 24.0979C19.4134 22.1056 17.4368 20.5869 15.1499 19.7433V19.7434ZM5.50006 13.4999C5.50006 12.4121 5.82263 11.3488 6.42698 10.4443C7.03133 9.53981 7.89031 8.83486 8.8953 8.41858C9.9003 8.0023 11.0062 7.89338 12.0731 8.1056C13.14 8.31782 14.12 8.84164 14.8891 9.61083C15.6583 10.38 16.1822 11.36 16.3944 12.4269C16.6066 13.4938 16.4977 14.5997 16.0814 15.6047C15.6651 16.6097 14.9602 17.4687 14.0557 18.073C13.1512 18.6774 12.0879 18.9999 11.0001 18.9999C9.54188 18.9983 8.14389 18.4183 7.1128 17.3872C6.08171 16.3561 5.50172 14.9581 5.50006 13.4999ZM30.7661 25.4914C30.6587 25.567 30.5375 25.6208 30.4093 25.6496C30.2812 25.6783 30.1487 25.6816 30.0193 25.6591C29.8899 25.6367 29.7662 25.5889 29.6552 25.5186C29.5443 25.4484 29.4483 25.3569 29.3727 25.2495C28.4486 23.9379 27.2231 22.8673 25.7993 22.1278C24.3754 21.3883 22.7948 21.0015 21.1903 20.9999C20.9251 20.9999 20.6707 20.8946 20.4832 20.707C20.2957 20.5195 20.1903 20.2651 20.1903 19.9999C20.1903 19.7347 20.2957 19.4804 20.4832 19.2928C20.6707 19.1053 20.9251 18.9999 21.1903 18.9999C21.9757 18.999 22.7518 18.83 23.4664 18.5041C24.181 18.1781 24.8175 17.703 25.3331 17.1105C25.8487 16.518 26.2314 15.822 26.4555 15.0693C26.6796 14.3165 26.7399 13.5245 26.6323 12.7465C26.5247 11.9685 26.2517 11.2226 25.8318 10.5589C25.4118 9.89521 24.8545 9.32918 24.1975 8.89887C23.5405 8.46856 22.7989 8.18396 22.0227 8.06422C21.2465 7.94448 20.4536 7.99237 19.6974 8.20467C19.4425 8.27538 19.1699 8.24217 18.9394 8.11231C18.7089 7.98246 18.5392 7.76654 18.4676 7.51186C18.3959 7.25717 18.4281 6.98446 18.5571 6.75347C18.6861 6.52247 18.9014 6.35201 19.1558 6.27942C20.8761 5.79407 22.7131 5.93915 24.3358 6.68851C25.9586 7.43787 27.2603 8.74223 28.0063 10.3665C28.7524 11.9908 28.8937 13.8281 28.4049 15.5473C27.916 17.2666 26.8291 18.7547 25.3401 19.7434C27.627 20.587 29.6036 22.1057 31.0079 24.098C31.1606 24.3149 31.2209 24.5835 31.1756 24.8448C31.1302 25.1061 30.9829 25.3387 30.7661 25.4914Z" fill="#4678F8"/>
</svg>
