<svg width="15" height="19" viewBox="0 0 15 19" fill="none" xmlns="http://www.w3.org/2000/svg">
<path d="M8.151 0.054725C7.01575 -0.229087 5.96125 0.629475 5.88525 1.74097C5.79975 2.98904 5.61212 4.13498 5.377 4.8166C5.22856 5.2441 4.80819 6.01954 4.142 6.76291C3.48056 7.50273 2.61963 8.16179 1.61144 8.43729C0.813438 8.6546 0 9.34572 0 10.3551V15.1063C0 16.1097 0.809875 16.8448 1.7195 16.941C2.99013 17.0764 3.57675 17.4338 4.17525 17.7995L4.23225 17.8352C4.55525 18.0311 4.91862 18.2484 5.38412 18.4099C5.85556 18.5714 6.40656 18.6676 7.125 18.6676H11.2812C12.3939 18.6676 13.1801 18.1012 13.5779 17.4041C13.7701 17.0752 13.8741 16.7021 13.8795 16.3211C13.8795 16.1406 13.8522 15.9506 13.7881 15.7701C14.0268 15.4578 14.2393 15.0837 14.3676 14.7002C14.4982 14.3083 14.5718 13.7953 14.3723 13.3357C14.4543 13.1813 14.5148 13.0163 14.5611 12.8572C14.6526 12.5365 14.6953 12.1827 14.6953 11.8395C14.6953 11.4975 14.6526 11.1448 14.5611 10.823C14.5196 10.675 14.4647 10.5312 14.3972 10.3931C14.6052 10.0973 14.739 9.75578 14.7873 9.39743C14.8357 9.03907 14.7972 8.67435 14.6751 8.33398C14.4305 7.63098 13.8652 7.02772 13.2501 6.82347C12.2443 6.4886 11.1091 6.49573 10.2624 6.57291C10.0866 6.58873 9.9112 6.60853 9.73631 6.63229C10.1483 4.86812 10.123 3.03002 9.66269 1.27785C9.58261 0.997112 9.42898 0.742864 9.2177 0.541398C9.00643 0.339932 8.74516 0.198564 8.46094 0.131912L8.151 0.054725ZM11.2812 17.4813H7.125C6.51938 17.4813 6.10019 17.3993 5.77125 17.2865C5.43756 17.1713 5.17038 17.0158 4.84975 16.8198L4.80225 16.7913C4.14319 16.3888 3.37962 15.9233 1.84537 15.7606C1.44994 15.7179 1.1875 15.4162 1.1875 15.1075V10.3551C1.1875 10.0535 1.45587 9.71029 1.92375 9.58322C3.22406 9.22697 4.27144 8.40048 5.02788 7.55498C5.78194 6.71185 6.29138 5.80341 6.498 5.2061C6.78656 4.37485 6.98131 3.1066 7.07037 1.82173C7.10006 1.39185 7.49788 1.11635 7.86244 1.2066L8.17356 1.28497C8.36356 1.33247 8.47994 1.45479 8.51556 1.58779C9.00052 3.43556 8.94072 5.38416 8.34338 7.19873C8.30956 7.29965 8.3035 7.4078 8.32582 7.51187C8.34815 7.61594 8.39803 7.71209 8.47026 7.79027C8.54249 7.86845 8.6344 7.92577 8.73638 7.95624C8.83836 7.98671 8.94666 7.98921 9.04994 7.96348L9.0535 7.96229L9.07012 7.95873L9.139 7.9421C9.54507 7.85587 9.95586 7.79362 10.3693 7.75566C11.1566 7.68441 12.0994 7.69154 12.8749 7.95041C13.0827 8.01929 13.4092 8.30666 13.5517 8.72229C13.6788 9.08804 13.6551 9.51791 13.2359 9.93591L12.8167 10.3551L13.2359 10.7755C13.2869 10.8265 13.3606 10.9429 13.4187 11.1495C13.4757 11.3478 13.5078 11.5889 13.5078 11.8395C13.5078 12.0912 13.4757 12.3311 13.4187 12.5306C13.3594 12.7372 13.2869 12.8536 13.2359 12.9047L12.8167 13.3238L13.2359 13.7442C13.2917 13.8 13.3653 13.9544 13.2418 14.3237C13.1131 14.6819 12.9086 15.0079 12.6421 15.2797L12.2229 15.6988L12.6421 16.1192C12.6493 16.1252 12.6908 16.1786 12.6908 16.3211C12.6855 16.4953 12.6361 16.6653 12.5471 16.8151C12.3512 17.1571 11.9498 17.4801 11.2812 17.4801V17.4813Z" fill="#4678F8"/>
</svg>
