<svg width="199" height="57" viewBox="0 0 199 57" fill="none" xmlns="http://www.w3.org/2000/svg">
<path fill-rule="evenodd" clip-rule="evenodd" d="M0.444202 23.519C-1.11864 18.6348 1.57385 13.4085 6.45804 11.8456L42.0904 0.443987C46.9746 -1.11885 52.2017 1.57585 53.7645 6.46004L62.4063 33.4675C63.9692 38.3516 61.2796 43.5795 56.3954 45.1424L52.6472 46.3417L55.2473 54.2867L39.7815 50.4585L20.76 56.545C15.8758 58.1078 10.6503 55.415 9.08744 50.5309L0.444202 23.519ZM153.291 17.4912C152.138 17.4912 151.191 17.1582 150.448 16.4922C149.731 15.8006 149.372 14.9553 149.372 13.9564C149.372 12.9318 149.731 12.0865 150.448 11.4205C151.191 10.7289 152.138 10.3831 153.291 10.3831C154.418 10.3831 155.34 10.7289 156.057 11.4205C156.8 12.0865 157.172 12.9318 157.172 13.9564C157.172 14.9553 156.8 15.8006 156.057 16.4922C155.34 17.1582 154.418 17.4912 153.291 17.4912ZM156.557 41.1591H149.987V19.7197H156.557V41.1591ZM104.737 41.1591V35.5879H102.393C101.676 35.5879 101.164 35.4471 100.856 35.1653C100.549 34.8835 100.395 34.4225 100.395 33.7821V25.1756H104.698V19.7197H100.395V14.4943H93.825V19.7197H91.2123V25.1756H93.825V33.7053C93.825 36.3436 94.4909 38.2519 95.8229 39.4301C97.1549 40.5828 99.0119 41.1591 101.394 41.1591H104.737ZM71.6279 40.1217C73.3184 41.0183 75.2139 41.4665 77.3143 41.4665C79.4147 41.4665 81.3102 41.0183 83.0008 40.1217C84.7169 39.2252 86.0617 37.9445 87.0351 36.2795C88.034 34.589 88.5335 32.6423 88.5335 30.4394C88.5335 28.2365 88.0469 26.3026 87.0735 24.6377C86.1001 22.9471 84.7682 21.6536 83.0776 20.7571C81.387 19.8605 79.4916 19.4123 77.3912 19.4123C75.2908 19.4123 73.3953 19.8605 71.7047 20.7571C70.0141 21.6536 68.6822 22.9471 67.7088 24.6377C66.7355 26.3026 66.2488 28.2365 66.2488 30.4394C66.2488 32.6679 66.7226 34.6146 67.6704 36.2795C68.6438 37.9445 69.9629 39.2252 71.6279 40.1217ZM80.5033 34.3969C79.6324 35.319 78.5694 35.7801 77.3143 35.7801C76.0592 35.7801 75.009 35.319 74.1637 34.3969C73.344 33.4747 72.9342 32.1556 72.9342 30.4394C72.9342 28.6976 73.3568 27.3784 74.2021 26.4819C75.0474 25.5598 76.1104 25.0987 77.3912 25.0987C78.6463 25.0987 79.6965 25.5598 80.5418 26.4819C81.4127 27.4041 81.8481 28.7232 81.8481 30.4394C81.8481 32.1556 81.3998 33.4747 80.5033 34.3969ZM129.375 30.0936C129.375 30.7084 129.336 31.3487 129.26 32.0147H114.39C114.493 33.3467 114.915 34.3712 115.658 35.0885C116.427 35.7801 117.362 36.1259 118.463 36.1259C120.102 36.1259 121.242 35.4343 121.883 34.0511H128.875C128.517 35.4599 127.864 36.7278 126.916 37.8548C125.994 38.9819 124.828 39.8656 123.419 40.506C122.011 41.1463 120.435 41.4665 118.694 41.4665C116.593 41.4665 114.723 41.0183 113.084 40.1217C111.445 39.2252 110.164 37.9445 109.242 36.2795C108.32 34.6146 107.859 32.6679 107.859 30.4394C107.859 28.2109 108.307 26.2642 109.203 24.5993C110.125 22.9343 111.406 21.6536 113.046 20.7571C114.685 19.8605 116.568 19.4123 118.694 19.4123C120.768 19.4123 122.613 19.8477 124.226 20.7186C125.84 21.5895 127.095 22.8318 127.992 24.4456C128.914 26.0593 129.375 27.942 129.375 30.0936ZM122.651 28.3646C122.651 27.2376 122.267 26.3411 121.498 25.6751C120.73 25.0091 119.769 24.6761 118.617 24.6761C117.515 24.6761 116.58 24.9963 115.812 25.6366C115.069 26.277 114.608 27.1863 114.429 28.3646H122.651ZM145.559 41.1591V35.5879H143.215C142.498 35.5879 141.985 35.4471 141.678 35.1653C141.371 34.8835 141.217 34.4225 141.217 33.7821V25.1756H145.52V19.7197H141.217V14.4943H134.647V19.7197H132.034V25.1756H134.647V33.7053C134.647 36.3436 135.313 38.2519 136.645 39.4301C137.977 40.5828 139.834 41.1591 142.216 41.1591H145.559ZM169.31 25.1756H172.845V19.7197H169.31V19.5276C169.31 18.4005 169.566 17.6193 170.078 17.1838C170.591 16.7484 171.474 16.5691 172.73 16.6459V11.0747C172.499 11.0491 172.14 11.0363 171.654 11.0363C168.734 11.0363 166.518 11.7279 165.007 13.1111C163.496 14.4687 162.74 16.4666 162.74 19.1049V19.7197H160.358V25.1756H162.74V41.1591H169.31V25.1756ZM198.601 19.7197L185.153 51.341H178.084L183.002 40.4291L174.28 19.7197H181.619L186.575 33.1289L191.493 19.7197H198.601ZM38.0195 40.9192H44.5897V13.947H38.0195V30.6605L27.0309 13.947H20.4607V40.9192H27.0309V24.2825L38.0195 40.9192Z" fill="#4678F8"/>
</svg>
