<svg width="63" height="57" viewBox="0 0 63 57" fill="none" xmlns="http://www.w3.org/2000/svg">
<rect x="17" y="11" width="33" height="33" fill="white"/>
<path fill-rule="evenodd" clip-rule="evenodd" d="M6.45804 11.8456C1.57385 13.4085 -1.11864 18.6348 0.444202 23.519L9.08744 50.5309C10.6503 55.415 15.8758 58.1078 20.76 56.545L39.7815 50.4585L55.2473 54.2867L52.6472 46.3417L56.3954 45.1424C61.2796 43.5795 63.9692 38.3516 62.4063 33.4675L53.7645 6.46004C52.2017 1.57585 46.9746 -1.11885 42.0904 0.443987L6.45804 11.8456ZM38.0195 40.9192H44.5897V13.947H38.0195V30.6605L27.0309 13.947H20.4607V40.9192H27.0309V24.2825L38.0195 40.9192Z" fill="#4678F8"/>
</svg>
