<svg width="94" height="65" viewBox="0 0 94 65" fill="none" xmlns="http://www.w3.org/2000/svg">
<path d="M44.9286 48.1427H5.28571L5.27779 8.25143L35.4962 29.1723C35.9381 29.478 36.4627 29.6418 37 29.6418C37.5373 29.6418 38.0619 29.478 38.5038 29.1723L68.7143 8.262V32.2856H74V5.857C73.9979 4.45579 73.4403 3.11256 72.4495 2.12176C71.4587 1.13095 70.1155 0.573386 68.7143 0.571289H5.28571C3.88429 0.572688 2.54066 1.13002 1.5497 2.12099C0.558735 3.11195 0.00139933 4.45557 0 5.857V48.1427C0.00209711 49.5439 0.559656 50.8872 1.55047 51.878C2.54128 52.8688 3.8845 53.4263 5.28571 53.4284H44.9286V48.1427ZM62.8974 5.857L37 23.7861L11.1026 5.857H62.8974Z" fill="#37C64E"/>
<path fill-rule="evenodd" clip-rule="evenodd" d="M93.61 35.5839L70.7863 64.1214L52.8571 49.1787L56.24 45.1193L70.0251 56.6052L89.4872 32.2856L93.61 35.5839Z" fill="#37C64E"/>
</svg>
