<svg width="14" height="33" viewBox="0 0 14 33" fill="none" xmlns="http://www.w3.org/2000/svg">
<path fill-rule="evenodd" clip-rule="evenodd" d="M4.61879 8.36662C5.35881 8.86108 6.22884 9.125 7.11885 9.125C8.31123 9.12144 9.45376 8.64619 10.2969 7.80305C11.14 6.95991 11.6153 5.81738 11.6189 4.625C11.6189 3.73499 11.3549 2.86496 10.8605 2.12494C10.366 1.38491 9.6632 0.808138 8.84093 0.467544C8.01866 0.12695 7.11386 0.0378348 6.24095 0.211468C5.36803 0.385102 4.56621 0.813685 3.93687 1.44302C3.30753 2.07236 2.87895 2.87418 2.70532 3.7471C2.53168 4.62001 2.6208 5.52481 2.96139 6.34708C3.30199 7.16934 3.87876 7.87215 4.61879 8.36662ZM5.86882 2.7542C6.23883 2.50696 6.67385 2.375 7.11885 2.375C7.71504 2.37678 8.28631 2.61441 8.70788 3.03598C9.12945 3.45755 9.36707 4.02881 9.36885 4.625C9.36885 5.07001 9.23689 5.50502 8.98966 5.87503C8.74243 6.24505 8.39102 6.53343 7.97989 6.70373C7.56876 6.87403 7.11636 6.91859 6.6799 6.83177C6.24344 6.74495 5.84253 6.53066 5.52786 6.21599C5.21319 5.90132 4.9989 5.50041 4.91209 5.06396C4.82527 4.6275 4.86983 4.1751 5.04012 3.76396C5.21042 3.35283 5.49881 3.00143 5.86882 2.7542ZM4.86898 32.7506H9.36898C9.96517 32.7488 10.5364 32.5112 10.958 32.0896C11.3796 31.668 11.6172 31.0968 11.619 30.5006V22.6256C12.2152 22.6238 12.7864 22.3862 13.208 21.9646C13.6296 21.543 13.8672 20.9718 13.869 20.3756V13.6256C13.8772 13.1801 13.7956 12.7375 13.6289 12.3243C13.4622 11.9111 13.2139 11.5358 12.8988 11.2207C12.5838 10.9057 12.2084 10.6574 11.7952 10.4907C11.382 10.324 10.9395 10.2423 10.494 10.2506H3.74398C3.2985 10.2423 2.85593 10.324 2.44273 10.4907C2.02953 10.6574 1.65418 10.9057 1.33913 11.2207C1.02407 11.5358 0.77578 11.9111 0.609088 12.3243C0.442397 12.7375 0.360732 13.1801 0.368976 13.6256V20.3756C0.370756 20.9718 0.608381 21.543 1.02995 21.9646C1.45152 22.3862 2.02279 22.6238 2.61898 22.6256V30.5006C2.62076 31.0968 2.85838 31.668 3.27995 32.0896C3.70152 32.5112 4.27279 32.7488 4.86898 32.7506ZM3.30301 12.5678C3.44359 12.5145 3.59389 12.4915 3.74398 12.5006H10.494C10.6441 12.4915 10.7944 12.5145 10.9349 12.5678C11.0755 12.6212 11.2032 12.7037 11.3095 12.81C11.4158 12.9164 11.4984 13.044 11.5517 13.1846C11.6051 13.3252 11.628 13.4755 11.619 13.6256V20.3756H9.36898V30.5006H4.86898V20.3756H2.61898V13.6256C2.60995 13.4755 2.63287 13.3252 2.68622 13.1846C2.73956 13.044 2.82212 12.9164 2.92844 12.81C3.03476 12.7037 3.16243 12.6212 3.30301 12.5678Z" fill="#4678F8"/>
</svg>
