<svg width="26" height="26" viewBox="0 0 26 26" fill="none" xmlns="http://www.w3.org/2000/svg">
<path fill-rule="evenodd" clip-rule="evenodd" d="M11.2804 6.76478C11.8149 7.12189 12.4432 7.3125 13.086 7.3125C13.9472 7.30993 14.7723 6.96669 15.3813 6.35776C15.9902 5.74882 16.3334 4.92366 16.336 4.0625C16.336 3.41971 16.1454 2.79136 15.7883 2.2569C15.4312 1.72244 14.9236 1.30588 14.3297 1.05989C13.7359 0.813908 13.0824 0.749547 12.452 0.874949C11.8215 1.00035 11.2424 1.30988 10.7879 1.7644C10.3334 2.21893 10.0238 2.79802 9.89845 3.42846C9.77305 4.0589 9.83741 4.71236 10.0834 5.30622C10.3294 5.90008 10.7459 6.40766 11.2804 6.76478ZM12.1832 2.71136C12.4504 2.53281 12.7646 2.4375 13.086 2.4375C13.5166 2.43879 13.9292 2.61041 14.2336 2.91487C14.5381 3.21934 14.7097 3.63192 14.711 4.0625C14.711 4.3839 14.6157 4.69807 14.4371 4.9653C14.2586 5.23253 14.0048 5.44081 13.7079 5.56381C13.4109 5.6868 13.0842 5.71898 12.769 5.65628C12.4538 5.59358 12.1642 5.43881 11.937 5.21155C11.7097 4.98429 11.5549 4.69474 11.4922 4.37952C11.4295 4.0643 11.4617 3.73757 11.5847 3.44064C11.7077 3.14371 11.916 2.88992 12.1832 2.71136ZM11.4611 24.3754H14.7111C15.1417 24.3741 15.5543 24.2025 15.8587 23.898C16.1632 23.5936 16.3348 23.181 16.3361 22.7504V17.0629C16.7667 17.0616 17.1793 16.89 17.4837 16.5855C17.7882 16.2811 17.9598 15.8685 17.9611 15.4379V10.5629C17.9671 10.2412 17.9081 9.92154 17.7877 9.62312C17.6673 9.3247 17.488 9.05362 17.2604 8.82608C17.0329 8.59854 16.7618 8.41921 16.4634 8.29882C16.165 8.17844 15.8453 8.11946 15.5236 8.12541H10.6486C10.3269 8.11946 10.0072 8.17844 9.70882 8.29882C9.41039 8.41921 9.13931 8.59854 8.91177 8.82608C8.68423 9.05362 8.50491 9.3247 8.38452 9.62312C8.26413 9.92154 8.20515 10.2412 8.2111 10.5629V15.4379C8.21239 15.8685 8.38401 16.2811 8.68848 16.5855C8.99294 16.89 9.40552 17.0616 9.8361 17.0629V22.7504C9.83739 23.181 10.009 23.5936 10.3135 23.898C10.6179 24.2025 11.0305 24.3741 11.4611 24.3754ZM10.3301 9.79897C10.4317 9.76044 10.5402 9.74389 10.6486 9.75041H15.5236C15.632 9.74389 15.7406 9.76044 15.8421 9.79897C15.9436 9.8375 16.0358 9.89713 16.1126 9.97391C16.1894 10.0507 16.249 10.1429 16.2875 10.2444C16.3261 10.346 16.3426 10.4545 16.3361 10.5629V15.4379H14.7111V22.7504H11.4611V15.4379H9.8361V10.5629C9.82959 10.4545 9.84614 10.346 9.88467 10.2444C9.92319 10.1429 9.98282 10.0507 10.0596 9.97391C10.1364 9.89713 10.2286 9.8375 10.3301 9.79897Z" fill="#C4C1C1"/>
</svg>
