<svg width="24" height="24" viewBox="0 0 24 24" fill="none" xmlns="http://www.w3.org/2000/svg">
<path d="M7.2 18V17.8H7H4C3.00746 17.8 2.2 16.9925 2.2 16V4C2.2 3.00746 3.00746 2.2 4 2.2H20C20.9925 2.2 21.8 3.00746 21.8 4V16C21.8 16.9925 20.9925 17.8 20 17.8H13.277H13.2216L13.1741 17.8285L7.2 21.4137V18ZM20 16.2H20.2V16V4V3.8H20H4H3.8V4V16V16.2H4H8.8V18.233V18.5862L9.10287 18.4045L12.7784 16.2H20Z" fill="#32353C" stroke="white" stroke-width="0.4"/>
<path d="M7.2 7.2H16.8V8.8H7.2V7.2ZM7.2 11.2H13.8V12.8H7.2V11.2Z" fill="#32353C" stroke="white" stroke-width="0.4"/>
<rect x="0.5" y="0.5" width="23" height="23" stroke="white"/>
</svg>
