<svg width="46" height="66" viewBox="0 0 46 66" fill="none" xmlns="http://www.w3.org/2000/svg">
<path d="M40.4334 25.3118V17.6237C40.4334 12.963 38.5967 8.49331 35.3273 5.19776C32.0579 1.9022 27.6236 0.0507813 23 0.0507812C18.3764 0.0507813 13.9421 1.9022 10.6727 5.19776C7.40332 8.49331 5.56659 12.963 5.56659 17.6237V25.3118H0.118652V42.8847C0.118652 55.6024 10.3831 65.9491 23 65.9491C35.6169 65.9491 45.8814 55.6024 45.8814 42.8847V25.3118H40.4334ZM9.92495 17.6237C9.92495 14.1282 11.3025 10.7759 13.7545 8.30424C16.2066 5.83257 19.5323 4.444 23 4.444C26.4677 4.444 29.7934 5.83257 32.2455 8.30424C34.6975 10.7759 36.0751 14.1282 36.0751 17.6237V25.3118H9.92495V17.6237ZM41.523 42.8847C41.523 53.1799 33.2135 61.5559 23 61.5559C12.7865 61.5559 4.47701 53.1799 4.47701 42.8847V29.705H41.523V42.8847Z" fill="black" fill-opacity="0.2"/>
</svg>
