<svg width="26" height="18" viewBox="0 0 26 18" fill="none" xmlns="http://www.w3.org/2000/svg">
<path d="M21.6447 1.55161C22.4257 0.770558 23.692 0.770559 24.4731 1.55161C25.2541 2.33266 25.2541 3.59899 24.4731 4.38003L11.4806 17.3725C10.6995 18.1536 9.43319 18.1536 8.65214 17.3725C7.87109 16.5915 7.87109 15.3252 8.65214 14.5441L21.6447 1.55161Z" fill="white"/>
<path d="M11.3124 14.4849C12.0934 15.2659 12.0934 16.5323 11.3124 17.3133C10.5313 18.0944 9.265 18.0944 8.48395 17.3133L1.41416 10.2435C0.633107 9.46248 0.633107 8.19615 1.41416 7.4151C2.1952 6.63405 3.46153 6.63405 4.24258 7.4151L11.3124 14.4849Z" fill="white"/>
</svg>
