<svg width="26" height="26" viewBox="0 0 26 26" fill="none" xmlns="http://www.w3.org/2000/svg">
<path d="M25.1384 12.7238C24.1828 10.2518 22.5238 8.11413 20.3664 6.57482C18.2091 5.03551 15.648 4.16209 12.9997 4.0625C10.3513 4.16209 7.79022 5.03551 5.63288 6.57482C3.47554 8.11413 1.81653 10.2518 0.860904 12.7238C0.796365 12.9023 0.796365 13.0977 0.860904 13.2762C1.81653 15.7482 3.47554 17.8859 5.63288 19.4252C7.79022 20.9645 10.3513 21.8379 12.9997 21.9375C15.648 21.8379 18.2091 20.9645 20.3664 19.4252C22.5238 17.8859 24.1828 15.7482 25.1384 13.2762C25.2029 13.0977 25.2029 12.9023 25.1384 12.7238ZM12.9997 20.3125C8.6934 20.3125 4.1434 17.1194 2.49403 13C4.1434 8.88062 8.6934 5.6875 12.9997 5.6875C17.3059 5.6875 21.8559 8.88062 23.5053 13C21.8559 17.1194 17.3059 20.3125 12.9997 20.3125Z" fill="#898484" fill-opacity="0.5"/>
<path d="M13 8.125C12.0358 8.125 11.0933 8.41091 10.2916 8.94659C9.48991 9.48226 8.86507 10.2436 8.49609 11.1344C8.12711 12.0252 8.03057 13.0054 8.21867 13.9511C8.40678 14.8967 8.87108 15.7654 9.55286 16.4471C10.2346 17.1289 11.1033 17.5932 12.0489 17.7813C12.9946 17.9694 13.9748 17.8729 14.8656 17.5039C15.7564 17.1349 16.5177 16.5101 17.0534 15.7084C17.5891 14.9067 17.875 13.9642 17.875 13C17.875 11.7071 17.3614 10.4671 16.4471 9.55285C15.5329 8.63861 14.2929 8.125 13 8.125ZM13 16.25C12.3572 16.25 11.7289 16.0594 11.1944 15.7023C10.6599 15.3452 10.2434 14.8376 9.99739 14.2437C9.75141 13.6499 9.68705 12.9964 9.81245 12.366C9.93785 11.7355 10.2474 11.1564 10.7019 10.7019C11.1564 10.2474 11.7355 9.93785 12.366 9.81245C12.9964 9.68705 13.6499 9.75141 14.2437 9.99739C14.8376 10.2434 15.3452 10.6599 15.7023 11.1944C16.0594 11.7289 16.25 12.3572 16.25 13C16.25 13.862 15.9076 14.6886 15.2981 15.2981C14.6886 15.9076 13.862 16.25 13 16.25Z" fill="#898484" fill-opacity="0.5"/>
</svg>
